<svg xmlns="http://www.w3.org/2000/svg" viewBox="0 0 1200 780"><defs><style>.cls-1,.cls-15,.cls-21{fill:#fff;}.cls-2{fill:#f2f2f2;}.cls-3,.cls-4,.cls-5,.cls-6,.cls-7,.cls-9{fill:none;stroke-miterlimit:10;stroke-width:2px;}.cls-3{stroke:#e6e6e6;}.cls-4,.cls-5,.cls-6,.cls-7{stroke:#b3b3b3;}.cls-4{stroke-dasharray:3;}.cls-6{stroke-dasharray:2.99 2.99;}.cls-7{stroke-dasharray:2.66 2.66;}.cls-8{fill:#ea004d;}.cls-9{stroke:#52b9e2;}.cls-10{fill:#97d5ee;}.cls-11{font-size:8px;}.cls-11,.cls-12,.cls-14{fill:#303030;}.cls-11,.cls-12,.cls-14,.cls-15,.cls-21{font-family:ArialMT, Arial;}.cls-12,.cls-21{font-size:6px;}.cls-13{letter-spacing:-0.07em;}.cls-14,.cls-15{font-size:7px;}.cls-16{letter-spacing:-0.11em;}.cls-17{letter-spacing:-0.02em;}.cls-18{letter-spacing:0em;}.cls-19{letter-spacing:-0.02em;}.cls-20{letter-spacing:0em;}.cls-22{letter-spacing:-0.06em;}.cls-23{fill:gray;}</style></defs><title>5</title><g id="Layer_4" data-name="Layer 4"><rect class="cls-1" width="1200" height="780"/><rect class="cls-2" x="380.33" y="43.33" width="61.46" height="61.46" rx="5"/><path class="cls-2" d="M814.58,680.33H385.42a5.08,5.08,0,0,1-5.09-5.08V113.75a5.08,5.08,0,0,1,5.09-5.08h57.8a5.09,5.09,0,0,0,5.09-5.11L448,46.44a5.07,5.07,0,0,1,5.08-5.11H814.58a5.09,5.09,0,0,1,5.09,5.09V675.25A5.08,5.08,0,0,1,814.58,680.33Z"/><rect class="cls-3" x="380.33" y="688" width="439.33" height="50.67" rx="5"/><line class="cls-4" x1="487.33" y1="245.7" x2="657.33" y2="245.7"/><polyline class="cls-4" points="655.33 301.33 627 301.33 627 249.33 662 249.33"/><polyline class="cls-4" points="487.33 241 625.67 241 625.67 206.7 666.33 206.7"/><polyline class="cls-4" points="794.33 269 794.33 345.96 612.67 345.96"/><polyline class="cls-4" points="708 206.7 776.33 206.7 776.33 78.46 739.33 78.46"/><polyline class="cls-4" points="789.67 220.18 789.67 142.58 612.67 142.58"/><line class="cls-5" x1="395" y1="596" x2="395" y2="594.5"/><line class="cls-6" x1="395" y1="591.51" x2="395" y2="162.47"/><polyline class="cls-5" points="395 160.97 395 159.47 396.5 159.47"/><line class="cls-7" x1="399.16" y1="159.47" x2="419.11" y2="159.47"/><line class="cls-5" x1="420.44" y1="159.47" x2="421.94" y2="159.47"/><rect class="cls-8" x="392" y="70.83" width="33.75" height="17.75" rx="2"/><rect class="cls-8" x="415.75" y="147.08" width="74" height="17.75" rx="2"/><rect class="cls-8" x="514.75" y="58.42" width="100.25" height="17.75" rx="2"/><rect class="cls-8" x="514.75" y="82.75" width="100.25" height="17.75" rx="2"/><rect class="cls-8" x="514.75" y="107.08" width="100.25" height="17.75" rx="2"/><rect class="cls-8" x="514.75" y="131.42" width="100.25" height="17.75" rx="2"/><rect class="cls-8" x="642.75" y="45.25" width="100.25" height="17.75" rx="2"/><rect class="cls-8" x="642.75" y="69.58" width="100.25" height="17.75" rx="2"/><rect class="cls-8" x="642.75" y="118.25" width="100.25" height="17.75" rx="2"/><rect class="cls-8" x="514.75" y="155.75" width="100.25" height="17.75" rx="2"/><rect class="cls-8" x="514.75" y="180.08" width="100.25" height="17.75" rx="2"/><rect class="cls-8" x="514.75" y="396.75" width="100.25" height="17.75" rx="2"/><rect class="cls-8" x="514.75" y="421.08" width="100.25" height="17.75" rx="2"/><rect class="cls-8" x="514.75" y="469.75" width="100.25" height="17.75" rx="2"/><rect class="cls-8" x="514.75" y="494.08" width="100.25" height="17.75" rx="2"/><rect class="cls-8" x="424.98" y="693.08" width="74.18" height="15.05" rx="2"/><rect class="cls-9" x="603.98" y="693.08" width="74.18" height="15.05" rx="2"/><rect class="cls-8" x="514.75" y="518.42" width="100.25" height="17.75" rx="2"/><rect class="cls-8" x="514.75" y="264.08" width="100.25" height="17.75" rx="2"/><rect class="cls-8" x="514.75" y="288.42" width="100.25" height="17.75" rx="2"/><rect class="cls-8" x="514.75" y="312.75" width="100.25" height="17.75" rx="2"/><rect class="cls-8" x="514.75" y="337.08" width="100.25" height="17.75" rx="2"/><rect class="cls-8" x="514.75" y="361.42" width="100.25" height="17.75" rx="2"/><rect class="cls-8" x="415.75" y="233.42" width="74" height="17.75" rx="2"/><rect class="cls-8" x="415.75" y="353.42" width="74" height="17.75" rx="2"/><rect class="cls-8" x="415.75" y="403.08" width="74" height="17.75" rx="2"/><polygon class="cls-10" points="490.83 216.33 485.33 221.08 422.17 221.08 415.75 215.83 415.75 209.17 422.17 203.33 484.83 203.33 490.83 208.67 490.83 216.33"/><polygon class="cls-10" points="711.68 211.06 706.18 216.08 661.75 216.11 655.33 210.55 655.33 203.49 661.75 197.31 705.68 197.29 711.68 202.94 711.68 211.06"/><polygon class="cls-10" points="711.68 250.06 706.18 255.08 661.75 255.11 655.33 249.55 655.33 242.49 661.75 236.31 705.68 236.29 711.68 241.94 711.68 250.06"/><polygon class="cls-10" points="808.52 266.62 803.02 271.64 758.58 271.67 752.17 266.11 752.17 259.05 758.58 252.87 802.52 252.85 808.52 258.5 808.52 266.62"/><polygon class="cls-10" points="808.52 228.62 803.02 233.64 758.58 233.67 752.17 228.11 752.17 221.05 758.58 214.87 802.52 214.85 808.52 220.5 808.52 228.62"/><polygon class="cls-10" points="485.17 631.87 479.67 636.9 435.23 636.92 428.82 631.37 428.82 624.31 435.23 618.13 479.17 618.11 485.17 623.75 485.17 631.87"/><polygon class="cls-10" points="598.33 653.62 592.83 658.65 519.73 658.67 513.32 653.12 513.32 646.06 519.73 639.88 592.33 639.86 598.33 645.5 598.33 653.62"/><polygon class="cls-10" points="499.17 724.99 494.85 728.93 430.02 728.95 424.98 724.59 424.98 719.05 430.02 714.21 494.46 714.19 499.17 718.62 499.17 724.99"/><polygon class="cls-8" points="590.51 724.99 586.19 728.93 521.36 728.95 516.33 724.59 516.33 719.05 521.36 714.21 585.8 714.19 590.51 718.62 590.51 724.99"/><polygon class="cls-10" points="440.08 600.35 434.58 605.38 396.44 605.4 390.03 599.84 390.03 592.78 396.44 586.6 434.08 586.58 440.08 592.23 440.08 600.35"/><rect class="cls-8" x="415.75" y="176.08" width="74" height="17.75" rx="8.87"/><rect class="cls-8" x="642.75" y="505.25" width="89.25" height="17.75" rx="2"/><rect class="cls-8" x="642.75" y="469.75" width="89.25" height="17.75" rx="2"/><rect class="cls-8" x="642.75" y="445.46" width="89.25" height="17.75" rx="2"/><rect class="cls-8" x="642.75" y="396.75" width="89.25" height="17.75" rx="2"/><rect class="cls-8" x="653.75" y="320.33" width="89.25" height="17.75" rx="2"/><rect class="cls-8" x="653.75" y="271.67" width="89.25" height="17.75" rx="2"/><rect class="cls-8" x="653.75" y="296.29" width="89.25" height="17.75" rx="2"/><rect class="cls-8" x="642.75" y="529.58" width="89.25" height="17.75" rx="2"/><rect class="cls-8" x="642.75" y="578.25" width="89.25" height="17.75" rx="2"/><rect class="cls-8" x="742.77" y="578.25" width="45.54" height="17.75" rx="2"/><rect class="cls-8" x="642.75" y="602.58" width="89.25" height="17.75" rx="2"/><rect class="cls-8" x="642.75" y="626.92" width="89.25" height="17.75" rx="2"/><rect class="cls-8" x="642.75" y="651.25" width="89.25" height="17.75" rx="2"/><polygon class="cls-8" points="583.67 693.08 520.8 693.08 516.33 707.67 579.19 707.67 583.67 693.08"/><line class="cls-5" x1="694.67" y1="702.33" x2="716.33" y2="702.33"/><line class="cls-4" x1="694.67" y1="720" x2="716.33" y2="720"/><text class="cls-11" transform="translate(746 703.83)">extends</text><text class="cls-12" transform="translate(610.12 702.33)">DEPREC<tspan class="cls-13" x="25" y="0">A</tspan><tspan x="28.56" y="0">TED CLASS</tspan></text><text class="cls-11" transform="translate(746 720.33)">implements</text><polyline class="cls-5" points="642.75 660.13 631 660.13 631 514.13 642.75 514.13"/><line class="cls-5" x1="642.75" y1="636.92" x2="631" y2="636.92"/><line class="cls-5" x1="642.75" y1="611.46" x2="631" y2="611.46"/><line class="cls-5" x1="642.75" y1="587.13" x2="631" y2="587.13"/><line class="cls-5" x1="642.75" y1="538.46" x2="631" y2="538.46"/><line class="cls-5" x1="652" y1="563.08" x2="631" y2="563.08"/><line class="cls-5" x1="631" y1="554.58" x2="483.33" y2="554.58"/><polyline class="cls-5" points="514.75 527.29 506.45 527.29 506.45 405.63 514.75 405.63"/><polyline class="cls-5" points="419.33 554.92 406.75 554.92 406.75 88.58"/><polyline class="cls-5" points="653.75 330.5 645.45 330.5 645.45 281.42 653.75 281.42"/><polyline class="cls-5" points="642.75 127.13 634.45 127.13 634.45 53.92 642.75 53.92"/><polyline class="cls-5" points="514.75 213.5 506.45 213.5 506.45 67.29 514.75 67.29"/><polyline class="cls-5" points="514.75 371.17 506.45 371.17 506.45 272.96 514.75 272.96"/><line class="cls-5" x1="514.75" y1="429.96" x2="506.45" y2="429.96"/><line class="cls-5" x1="514.75" y1="345.96" x2="506.45" y2="345.96"/><line class="cls-5" x1="653.75" y1="304.88" x2="645.45" y2="304.88"/><line class="cls-5" x1="642.75" y1="78.46" x2="634.45" y2="78.46"/><line class="cls-5" x1="514.75" y1="91.63" x2="506.45" y2="91.63"/><line class="cls-5" x1="514.75" y1="115.96" x2="506.45" y2="115.96"/><line class="cls-5" x1="514.75" y1="140.29" x2="506.45" y2="140.29"/><line class="cls-5" x1="514.75" y1="164.63" x2="506.45" y2="164.63"/><line class="cls-5" x1="514.75" y1="188.96" x2="506.45" y2="188.96"/><line class="cls-5" x1="642.75" y1="102.79" x2="634.45" y2="102.79"/><line class="cls-5" x1="514.75" y1="321.63" x2="506.45" y2="321.63"/><line class="cls-5" x1="507.4" y1="304.67" x2="483" y2="304.67"/><line class="cls-5" x1="514.75" y1="297.29" x2="506.45" y2="297.29"/><line class="cls-5" x1="514.75" y1="478.63" x2="506.45" y2="478.63"/><line class="cls-5" x1="417.07" y1="471.33" x2="406.75" y2="471.33"/><line class="cls-5" x1="417.07" y1="304.67" x2="406.75" y2="304.67"/><line class="cls-5" x1="417.07" y1="123.33" x2="406.75" y2="123.33"/><line class="cls-5" x1="415.75" y1="411.96" x2="406.75" y2="411.96"/><line class="cls-5" x1="415.75" y1="362.56" x2="406.75" y2="362.56"/><line class="cls-5" x1="415.75" y1="242.29" x2="406.75" y2="242.29"/><line class="cls-5" x1="415.75" y1="212.21" x2="406.75" y2="212.21"/><line class="cls-5" x1="415.75" y1="155.96" x2="406.75" y2="155.96"/><line class="cls-5" x1="642.75" y1="478.63" x2="615" y2="478.63"/><line class="cls-5" x1="642.75" y1="405.63" x2="615" y2="405.63"/><line class="cls-5" x1="642.75" y1="454.33" x2="605.67" y2="454.33"/><line class="cls-5" x1="506.45" y1="471.33" x2="486" y2="471.33"/><line class="cls-5" x1="522.67" y1="454.33" x2="506.45" y2="454.33"/><line class="cls-5" x1="514.75" y1="502.96" x2="506.45" y2="502.96"/><polygon class="cls-8" points="491.75 462.83 418 462.83 412.75 479.83 486.5 479.83 491.75 462.83"/><polygon class="cls-8" points="615 445.83 521.41 445.83 514.75 462.83 608.34 462.83 615 445.83"/><polygon class="cls-8" points="732 554.33 648.68 554.33 642.75 571.33 726.07 571.33 732 554.33"/><polygon class="cls-8" points="491.75 546.08 418 546.08 412.75 563.08 486.5 563.08 491.75 546.08"/><polygon class="cls-8" points="491.75 296.17 418 296.17 412.75 313.17 486.5 313.17 491.75 296.17"/><polygon class="cls-8" points="491.75 114.83 418 114.83 412.75 131.83 486.5 131.83 491.75 114.83"/><rect class="cls-9" x="642.75" y="93.92" width="100.25" height="17.75" rx="2"/><rect class="cls-9" x="514.75" y="204.42" width="100.25" height="17.75" rx="2"/><polyline class="cls-5" points="415.05 605.4 415.05 627.52 428.82 627.52"/><polyline class="cls-5" points="694.33 255.11 694.33 262.26 752.17 262.26"/><polyline class="cls-5" points="694.33 216.11 694.33 224.26 752.17 224.26"/><text class="cls-11" transform="translate(393.97 59.29)">javalang</text><text class="cls-11" transform="translate(455.2 59.29)">java.in</text><text class="cls-14" transform="translate(422.79 214.85)">FilDescriptor</text><text class="cls-15" transform="translate(422.79 187.18)">FilenomeFilter</text><text class="cls-15" transform="translate(422.79 245.18)">RandomAccessFile</text><text class="cls-15" transform="translate(422.79 307.48)">OutputStream</text><text class="cls-15" transform="translate(422.79 364.81)">ObjectStreamClass</text><text class="cls-15" transform="translate(422.79 414.5)">Stream<tspan class="cls-16" x="22.56" y="0">T</tspan><tspan x="26.06" y="0">okenizer</tspan></text><text class="cls-15" transform="translate(522.29 408.5)">Bu<tspan class="cls-17" x="8.56" y="0">f</tspan><tspan class="cls-18" x="10.38" y="0">feredReader</tspan></text><text class="cls-15" transform="translate(522.29 275.33)">ByteArrayOutputStream</text><text class="cls-15" transform="translate(522.29 69.58)">ByteArrayInputStream</text><text class="cls-15" transform="translate(649.6 56.42)">Bu<tspan class="cls-17" x="8.56" y="0">f</tspan><tspan class="cls-18" x="10.38" y="0">feredInputStream</tspan></text><text class="cls-15" transform="translate(649.6 80.12)">DataInputStream</text><text class="cls-15" transform="translate(649.6 129.42)">PushbackInputStream</text><text class="cls-15" transform="translate(522.29 300.33)">FileOutputStream</text><text class="cls-15" transform="translate(522.29 324.83)">FileOutputStream</text><text class="cls-15" transform="translate(662 282.73)">ByteArrayOutputStream</text><text class="cls-15" transform="translate(662 307.73)">DataOutputStream</text><text class="cls-15" transform="translate(662 332.23)">PrintStream</text><text class="cls-15" transform="translate(649.6 408.5)">LineNumberReader</text><text class="cls-15" transform="translate(649.6 457)">PushbackReader</text><text class="cls-15" transform="translate(649.6 481)">FileReader</text><text class="cls-15" transform="translate(650.6 516.42)">Bu<tspan class="cls-17" x="8.56" y="0">f</tspan><tspan class="cls-18" x="10.38" y="0">fered</tspan><tspan class="cls-17" x="26.34" y="0">W</tspan><tspan class="cls-18" x="32.82" y="0">riter</tspan></text><text class="cls-15" transform="translate(650.6 541.42)">CharArray<tspan class="cls-17" x="31.9" y="0">W</tspan><tspan x="38.38" y="0">riter</tspan></text><text class="cls-15" transform="translate(650.6 565.42)">Filter<tspan class="cls-19" x="15.55" y="0">W</tspan><tspan class="cls-20" x="22.04" y="0">riter</tspan></text><text class="cls-15" transform="translate(750.63 589.92)">File<tspan class="cls-17" x="11.28" y="0">W</tspan><tspan x="17.76" y="0">riter</tspan></text><text class="cls-15" transform="translate(650.6 589.92)">OutputStream<tspan class="cls-19" x="43.58" y="0">W</tspan><tspan class="cls-18" x="50.06" y="0">riter</tspan></text><text class="cls-15" transform="translate(650.6 614.42)">Piped<tspan class="cls-17" x="17.9" y="0">W</tspan><tspan x="24.38" y="0">riter</tspan></text><text class="cls-15" transform="translate(650.6 637.86)">Piped<tspan class="cls-17" x="17.9" y="0">W</tspan><tspan x="24.38" y="0">riter</tspan></text><text class="cls-15" transform="translate(650.6 662.36)">String<tspan class="cls-17" x="18.29" y="0">W</tspan><tspan x="24.77" y="0">riter</tspan></text><text class="cls-15" transform="translate(522.29 348.83)">ObjectOutputStream</text><text class="cls-15" transform="translate(522.29 373.33)">PipedOutputStream</text><text class="cls-15" transform="translate(522.29 93.92)">FileInputStream</text><text class="cls-15" transform="translate(522.29 118.42)">FileInputStream</text><text class="cls-15" transform="translate(522.29 142.42)">ObjectInputStream</text><text class="cls-15" transform="translate(522.29 166.92)">PipedInputStream</text><text class="cls-15" transform="translate(522.29 191.42)">SequenceInputStream</text><text class="cls-15" transform="translate(522.29 432.5)">CharArrayReader</text><text class="cls-15" transform="translate(522.29 481)">InputStreamReader</text><text class="cls-15" transform="translate(522.29 505.25)">PipedReader</text><text class="cls-15" transform="translate(522.29 529.58)">StringReader</text><text class="cls-15" transform="translate(522.29 457)">FilterReader</text><text class="cls-15" transform="translate(422.79 474.17)">Reader</text><text class="cls-15" transform="translate(422.79 556.83)"><tspan class="cls-17">W</tspan><tspan x="6.48" y="0">riter</tspan></text><text class="cls-21" transform="translate(432.79 703.33)">CLASS</text><text class="cls-21" transform="translate(523.29 703.33)">ABSTRACTCLASS</text><text class="cls-21" transform="translate(523.29 723.83)">FINALCLASS</text><text class="cls-12" transform="translate(432.79 723.83)">INTER<tspan class="cls-22" x="18" y="0">F</tspan><tspan x="21.33" y="0">ACE</tspan></text><text class="cls-14" transform="translate(397.29 598.83)">Serializable</text><text class="cls-14" transform="translate(435.29 629.33)">Extemalizable</text><text class="cls-14" transform="translate(522.67 651.25)">ObjectInput<tspan class="cls-13" x="35.8" y="0">V</tspan><tspan class="cls-18" x="39.95" y="0">alidation</tspan></text><text class="cls-15" transform="translate(422.79 158.47)">File</text><text class="cls-15" transform="translate(422.79 126.13)">InputStream</text><text class="cls-15" transform="translate(398.64 82.13)">Object</text><text class="cls-14" transform="translate(522.29 216.11)">StringBu<tspan class="cls-17" x="26.85" y="0">f</tspan><tspan x="28.67" y="0">ferInputStream</tspan></text><text class="cls-14" transform="translate(662 209.11)">DataInput</text><text class="cls-14" transform="translate(760 226.76)">ObjectInput</text><text class="cls-14" transform="translate(760 265.08)">ObjectOutput</text><text class="cls-14" transform="translate(662 248.33)">DataOutput</text><text class="cls-14" transform="translate(649.6 105.42)">LineNumberInputStream</text><rect class="cls-23" x="390.03" y="693.08" width="23.82" height="15.05" rx="2"/><text class="cls-15" transform="translate(395 703.33)">KE<tspan class="cls-17" x="9.34" y="0">Y</tspan></text></g></svg>